<svg xmlns="http://www.w3.org/2000/svg" viewBox="0 0 512 512" width="35.93" height="32">
  <path fill="#FFD700" d="M256 64c-70.7 0-128 57.3-128 128s57.3 128 128 128s128-57.3 128-128S326.7 64 256 64zm0 192c-35.3 0-64-28.7-64-64s28.7-64 64-64s64 28.7 64 64s-28.7 64-64 64zm0 128c-52.9 0-96-43.1-96-96s43.1-96 96-96s96 43.1 96 96s-43.1 96-96 96zm0-320c-52.9 0-96 43.1-96 96c0 30.9 15.1 58.8 38.2 76c-3.8 7.3-6.2 15.4-6.2 24c0 26.5 21.5 48 48 48s48-21.5 48-48c0-8.6-2.4-16.7-6.2-24c23.1-17.2 38.2-45.1 38.2-76c0-52.9-43.1-96-96-96z"/>
</svg>
